<?xml version="1.0" encoding="UTF-8"?>
<svg width="464px" height="495px" viewBox="0 0 464 495" version="1.1" xmlns="http://www.w3.org/2000/svg" xmlns:xlink="http://www.w3.org/1999/xlink">
    <!-- Generator: Sketch 48.2 (47327) - http://www.bohemiancoding.com/sketch -->
    <title>chicken</title>
    <desc>Created with Sketch.</desc>
    <defs></defs>
    <g id="Page-1" stroke="none" stroke-width="1" fill="none" fill-rule="evenodd">
        <g id="chicken" fill-rule="nonzero">
            <g id="Group" transform="translate(160.000000, 407.000000)" fill="#FF8800">
                <path d="M40,52.737 L40,0.049 L24,0.049 L24,52.737 L2.344,74.393 C-0.726,77.571 -0.638,82.635 2.54,85.705 C5.64,88.699 10.555,88.699 13.656,85.705 L32,67.361 L50.344,85.705 C53.522,88.774 58.587,88.687 61.656,85.509 C64.65,82.409 64.65,77.494 61.656,74.393 L40,52.737 Z" id="Shape"></path>
                <path d="M141.656,74.393 L120,52.737 L120,0.049 L104,0.049 L104,52.737 L82.344,74.393 C79.274,77.571 79.362,82.635 82.54,85.705 C85.64,88.7 90.556,88.7 93.656,85.705 L112,67.361 L130.344,85.705 C133.522,88.775 138.586,88.687 141.656,85.509 C144.651,82.409 144.651,77.493 141.656,74.393 Z" id="Shape"></path>
            </g>
            <path d="M232,111 C307.111,111 368,171.889 368,247 L368,279 C368,354.111 307.111,415 232,415 C156.889,415 96,354.111 96,279 L96,247 C96,171.889 156.889,111 232,111 Z" id="Shape" fill="#FEBD33"></path>
            <g id="Group" transform="translate(0.000000, 239.000000)" fill="#FF4100">
                <path d="M464,96.049 C410.981,96.049 368,53.068 368,0.049 C421.019,0.049 464,43.03 464,96.049 Z" id="Shape"></path>
                <path d="M0,96.049 C0,43.03 42.981,0.049 96,0.049 C96,53.068 53.019,96.049 0,96.049 Z" id="Shape"></path>
            </g>
            <g id="Group" transform="translate(160.000000, 167.000000)" fill="#763A02">
                <path d="M16,0.049 C24.837,0.049 32,7.212 32,16.049 C32,24.886 24.837,32.049 16,32.049 C7.163,32.049 0,24.886 0,16.049 C0,7.212 7.163,0.049 16,0.049 Z" id="Shape"></path>
                <path d="M128,0.049 C136.837,0.049 144,7.212 144,16.049 C144,24.886 136.837,32.049 128,32.049 C119.163,32.049 112,24.886 112,16.049 C112,7.212 119.163,0.049 128,0.049 Z" id="Shape"></path>
            </g>
            <path d="M232,111 C232,80.072 206.928,55 176,55 L152,55 C152,85.928 177.072,111 208,111 L232,111 Z" id="Shape" fill="#E47700"></path>
            <g id="mask" transform="translate(105.000000, 0.000000)">
                <path d="M140,257.689617 L214.538557,257.689617 C224.224114,257.689617 232.076866,248.981766 232.076866,238.241531 L232.076866,48.6207656 L223.307711,38.8967227 L223.307711,0 C240.25843,0 254,15.2379141 254,34.0344258 C254,49.4062782 254,62.394803 254,73 C254,108.854548 254,165.55564 254,243.103277 C254,264.583746 238.294497,282 218.922886,282 L140,282 L140,257.689617 Z" id="Shape" fill="#DE4C3C"></path>
                <g id="Group" transform="translate(22.000000, 122.000000)">
                    <path d="M131.23316,146.374498 L113.744717,146.374498 L118.117075,165.847787 L129.707689,165.847787 C130.713113,162.722465 131.229198,159.431143 131.233656,156.111143 L131.233656,146.374498 L131.23316,146.374498 Z" id="Shape" fill="#FDB62F"></path>
                    <path d="M96.2557783,146.374498 L78.7673349,146.374498 L78.7673349,156.111143 C78.7717925,159.431143 79.2873821,162.722465 80.2933019,165.847787 L91.8839151,165.847787 L96.2557783,146.374498 Z" id="Shape" fill="#FDB62F"></path>
                    <path d="M157.465825,126.900658 C141.511769,126.900658 127.057429,116.438797 120.578137,100.207196 L117.29441,91.9844053 C115.134481,86.5709302 110.316368,83.0849302 105,83.0849302 C99.6836321,83.0849302 94.8655189,86.5709302 92.7055896,91.9844053 L89.4218632,100.207196 C82.9425708,116.438246 68.4882311,126.900658 52.5341745,126.900658 C23.5601179,126.900658 0.0683490566,100.742698 0.0683490566,68.4802392 L0.0683490566,58.7435947 C0.0683490566,26.4811362 23.5601179,0.32317608 52.5341745,0.32317608 L157.465825,0.32317608 C186.439882,0.32317608 209.931651,26.4811362 209.931651,58.7435947 L209.931651,68.4802392 C209.931651,100.743249 186.439882,126.900658 157.465825,126.900658 Z" id="Shape" fill="#69AA94"></path>
                </g>
                <path d="M179.000892,230 C169.957593,229.990031 161.763265,224.040366 158.083896,214.810437 L154.798037,206.548028 C147.85065,189.085043 129.554412,181.218613 113.922544,188.982032 C106.918163,192.462778 101.313865,198.72092 98.2029544,206.548028 L94.9170952,214.805453 C91.2421864,224.040366 83.043398,229.995016 74.0000991,230 C54.6799413,229.975632 39.0218066,212.47831 39,190.888827 L39,181.111173 C39.0218066,159.52169 54.6799413,142.024368 74.0000991,142 L178.999901,142 C198.320059,142.024368 213.978193,159.52169 214,181.111173 L214,190.888827 C213.979185,212.47831 198.32105,229.975632 179.000892,230 Z" id="Shape" fill="#4398D1"></path>
                <g id="Group" transform="translate(0.000000, 166.000000)" fill="#FDB62F">
                    <rect id="Rectangle-path" x="0" y="0.0187055016" width="30.6551211" height="29.1398706"></rect>
                    <rect id="Rectangle-path" x="227.723898" y="0.0187055016" width="26.2761016" height="29.1398706"></rect>
                    <path d="M127,145.716958 C110.078242,145.697702 96.3622422,130.486828 96.3448789,111.720809 L96.3448789,102.007702 L105.103414,102.007702 L105.103414,111.720809 C105.103414,125.129903 114.908707,136.003851 127,136.003851 C139.091293,136.003851 148.896586,125.129903 148.896586,111.720809 L148.896586,102.007702 L157.655121,102.007702 L157.655121,111.720809 C157.637758,130.486828 143.921758,145.697702 127,145.716958 Z" id="Shape"></path>
                    <path d="M113.861949,136.931424 L113.861949,155.430065 C113.861949,163.477832 119.743637,170 127,170 L140.138051,170 L140.138051,136.931424 C132.014516,142.171715 121.985484,142.171715 113.861949,136.931424 Z" id="Shape"></path>
                </g>
                <g id="Group" transform="translate(52.000000, 141.000000)" fill="#3E8CC7">
                    <path d="M171,114.875678 L187.999268,133.742754 C190.31259,131.749237 192.398103,129.434576 194.194265,126.867076 L177.194998,108 C175.688187,110.839619 173.558998,113.202754 171,114.875678 Z" id="Shape"></path>
                    <path d="M158,142.011907 L162.381464,142.011907 C163.8446,142.001992 165.308231,141.890169 166.762929,141.676441 L166.762929,115 C164.112113,116.750593 161.084595,117.679322 158.000496,117.698602 L158.000496,142.011907 L158,142.011907 Z" id="Shape"></path>
                    <path d="M178,97.7473305 L202.035518,97.7473305 C202.228088,96.1327966 202.32884,94.5088983 202.337774,92.8844492 L202.337774,88.0215678 L180.431445,88.0215678 C180.414074,91.4450847 179.577287,94.8052542 178,97.7473305 Z" id="Shape"></path>
                    <rect id="Rectangle-path" x="134" y="116" width="8.76243243" height="24.3133051"></rect>
                    <rect id="Rectangle-path" x="179" y="68" width="21.9063292" height="9.72521186"></rect>
                    <path d="M127.51858,0.494110169 L98.6286093,0.494110169 L0.277936118,79.2686017 C6.50817199,84.9285593 14.3156953,88.0215678 22.368398,88.0215678 C31.4246486,88.0166102 39.6351794,82.0938983 43.3153514,72.9085169 L46.6059165,64.6953814 C53.5632531,47.3260593 71.8856953,39.501822 87.5399509,47.2236017 C94.5543636,50.685678 100.166688,56.9102542 103.281558,64.6953814 L106.572123,72.9134746 C110.256762,82.0938983 118.462826,88.0122034 127.519076,88.0215678 C146.866904,87.9973305 162.547464,70.5938559 162.569302,49.1201695 L162.569302,39.3949576 C162.546968,17.921822 146.866408,0.518347458 127.51858,0.494110169 Z" id="Shape"></path>
                </g>
            </g>
            <path d="M312,55 L288,55 C257.072,55 232,80.072 232,111 L256,111 C286.928,111 312,85.928 312,55 Z" id="Shape" fill="#FF8800"></path>
            <polygon id="Shape" fill="#FF421D" points="208 223 232 199 256 223 232 247"></polygon>
        </g>
    </g>
</svg>